<?xml version="1.0" encoding="utf-8"?>
<svg version="1.1" xmlns:xlink="http://www.w3.org/1999/xlink" width="212px" height="170px" xmlns="http://www.w3.org/2000/svg">
  <g transform="matrix(1 0 0 1 -10 -10 )">
    <path d="M 10 10  L 222 10  L 222 180  L 10 180  L 10 10  " fill-rule="nonzero" fill="#cccccc" stroke="none" />
    <path d="M 22 22  L 210 22  L 210 168  L 22 168  L 22 22  " fill-rule="nonzero" fill="#ffffff" stroke="none" />
    <path d="M 132.99 61  C 125.85 61  120.24 55.39  120.24 48.25  C 120.24 41.11  125.85 35.5  132.99 35.5  C 140.13 35.5  145.74 41.11  145.74 48.25  C 145.74 55.39  140.13 61  132.99 61  " fill-rule="nonzero" fill="#cccccc" stroke="none" />
    <path d="M 27 164  L 27 88.65  L 71.75 54.4  L 134.4 98.0849056603774  L 170.2 74.95  L 206 98.0849056603774  L 206 164  L 27 164  " fill-rule="nonzero" fill="#169bd5" stroke="none" />
  </g>
</svg>